<?xml version="1.0" standalone="no"?>
<!DOCTYPE svg PUBLIC "-//W3C//DTD SVG 20010904//EN"
 "http://www.w3.org/TR/2001/REC-SVG-20010904/DTD/svg10.dtd">
<svg version="1.0" xmlns="http://www.w3.org/2000/svg"
 width="410.000000pt" height="411.000000pt" viewBox="0 0 410.000000 411.000000"
 preserveAspectRatio="xMidYMid meet">
<metadata>
Created by potrace 1.11, written by Peter Selinger 2001-2013
</metadata>
<g transform="translate(0.000000,411.000000) scale(0.100000,-0.100000)"
fill="#000000" stroke="none">
<path d="M1840 4099 c-845 -85 -1565 -702 -1774 -1522 -123 -480 -74 -977 138
-1412 107 -218 227 -387 396 -555 516 -517 1253 -717 1967 -534 126 32 295 94
402 149 50 25 50 25 333 25 163 0 299 4 320 10 20 6 46 22 58 37 19 24 20 39
20 284 l0 258 64 98 c324 494 417 1093 260 1673 -182 672 -736 1231 -1409
1420 -254 71 -519 94 -775 69z m568 -174 c381 -79 695 -242 960 -499 599 -579
754 -1490 378 -2221 l-41 -80 -3 275 -2 274 30 24 30 23 0 335 c0 321 -1 335
-20 354 -20 20 -33 20 -670 20 l-650 0 -2 660 c-3 617 -4 660 -21 677 -16 16
-46 18 -346 21 -320 3 -328 2 -354 -18 l-27 -21 0 -660 0 -659 -652 0 c-592 0
-653 -2 -670 -17 -17 -15 -18 -39 -18 -352 0 -185 4 -341 8 -347 21 -33 50
-34 691 -34 l641 0 0 -655 c0 -642 0 -655 20 -675 19 -19 33 -20 199 -20 172
0 180 -1 186 -20 4 -11 18 -28 33 -38 22 -15 62 -18 272 -22 l245 -5 -90 -23
c-162 -42 -247 -54 -435 -59 -141 -4 -213 -1 -304 11 -425 60 -794 243 -1092
542 -276 277 -444 595 -525 992 -26 127 -36 422 -20 558 111 904 782 1570
1701 1688 19 2 123 3 230 1 161 -3 216 -8 318 -30z m1114 -1830 c49 -37 58
-64 58 -175 0 -115 -12 -149 -63 -180 -31 -19 -55 -20 -638 -20 l-606 0 -34
23 c-52 35 -64 68 -64 177 0 110 17 150 75 182 33 17 64 18 640 16 587 -3 606
-4 632 -23z m-958 -708 c45 -45 41 -168 -7 -202 -16 -12 -51 -15 -150 -15
-121 0 -129 1 -152 24 -48 48 -39 176 15 203 16 8 69 13 148 13 115 0 124 -1
146 -23z m466 5 c42 -34 45 -161 5 -201 -24 -24 -266 -29 -300 -7 -52 34 -57
168 -7 206 22 18 40 20 152 20 108 0 131 -3 150 -18z m475 -7 c22 -21 25 -33
25 -95 0 -62 -3 -74 -25 -95 -23 -24 -30 -25 -152 -25 -99 0 -134 3 -150 15
-50 35 -53 168 -5 205 22 18 40 20 154 20 124 0 130 -1 153 -25z m-1034 -325
c49 0 73 -5 88 -17 30 -24 44 -93 31 -143 -17 -63 -36 -70 -183 -70 -122 0
-129 1 -152 24 -13 13 -27 39 -30 58 -8 41 9 110 30 128 22 18 75 29 115 25
19 -3 65 -5 101 -5z m467 0 c63 0 76 -3 96 -23 47 -47 39 -167 -14 -194 -38
-19 -259 -18 -287 2 -46 32 -55 152 -14 189 26 24 70 36 111 31 19 -3 68 -5
108 -5z m507 0 c18 0 43 -8 55 -18 44 -36 43 -156 -2 -194 -28 -24 -262 -26
-295 -3 -30 21 -46 77 -39 130 12 74 57 97 175 90 41 -3 89 -5 106 -5z m-878
-366 c32 -35 40 -104 17 -151 -11 -21 -30 -43 -44 -50 -32 -16 -230 -17 -264
-2 -33 15 -51 62 -50 127 3 94 38 111 209 105 100 -4 112 -7 132 -29z m440 20
c34 -7 56 -48 57 -108 0 -60 -21 -101 -60 -116 -35 -14 -228 -12 -258 1 -36
17 -59 81 -51 140 11 81 49 99 195 92 52 -2 105 -6 117 -9z m400 6 c65 0 77
-3 98 -25 22 -21 25 -33 25 -94 0 -65 -2 -71 -31 -95 -29 -25 -36 -26 -145
-26 -141 0 -168 11 -184 72 -15 52 -5 120 20 143 24 22 76 35 114 29 16 -2 62
-4 103 -4z"/>
</g>
</svg>
